<svg id="Layer_1" xmlns="http://www.w3.org/2000/svg" viewBox="0 0 222.5 74.2"><style>.st0{fill:url(#SVGID_1_)}</style><linearGradient id="SVGID_1_" gradientUnits="userSpaceOnUse" x1="10.194" y1="37.079" x2="212.278" y2="37.079"><stop offset="0" stop-color="#932270"/><stop offset="1" stop-color="#ee203e"/></linearGradient><path class="st0" d="M45.7 60.7s-4.6 7-16.1 7S11 63.3 11 63.3v-17h.9C14 58.4 22.7 67.1 29.6 66.9c9.1-.3 14.7-8.1 6.9-14.4-9.3-7.4-10.6-7.2-16.3-11.1-11.3-7.7-12.5-20.8-6.1-29.6 0 0 3.9-6.2 15.8-6.2 12 0 17.1 3.6 17.1 3.6v13.2h-1c-1.9-11.7-10-16-16.1-16-11.3 0-18.6 8.2-5 15.9 0 0 9.4 4.6 16.6 11 8.7 7.7 9.9 18.9 4.2 27.4zm57.6-24.1c0 17-8.3 31.1-27 31.1s-27-14.1-27-31.1c0-17.1 8.3-31.1 27-31.1s27 14 27 31.1zm-21.3 0c0-23.5-.1-29.9-5.8-29.9-5.8 0-5.9 6.5-5.9 29.9s.1 29.9 5.9 29.9c5.7.1 5.8-6.4 5.8-29.9zm78.4 30.3v.8h-26.2v-.8c4-1.2 4.2-5.8 4.2-11.1V21.9c0-6-2.2-8.8-7.2-8.8-2.3 0-4.7 1.9-6.2 4.1v38.7c0 5.8.5 9.9 4.3 11v.8h-26.2v-.8c4-1.2 4.1-5.5 4.1-11V17.5c0-3.7-1.2-5.1-5.4-6.7v-.9L125 5.5v10.2c2.7-5.5 8.3-10.2 13.9-10.2 8.4 0 17.2 3.4 17.2 15.9v34.3c.1 5.9.7 10.3 4.3 11.2zm51.9-5.9c-1.5 4.6-6.9 7.6-13.5 7.6 0 0-11.6 0-12.6-9.4-1.4 5.4-6.7 9.4-14.1 9.4-4 0-13.1-1.8-13.1-10.7 0-10.5 8.5-12.5 27.1-16.9V21.6c0-10.9-6.2-16.8-13.4-13 0 0-2.3 1.4 1.3 2.6 1.8.6 2.9 2.1 3.8 4 1.6 3.9-.2 8.1-4.1 9.7-3.8 1.5-8.1-.3-9.6-4.1-1-2.7-.5-5.9 1.3-7.8 1.3-1.4 3.1-3.2 7-5.3 4.7-2.5 9.8-2.2 9.8-2.2 13.7 0 21.4 8.6 21.4 20.9v28.4s0 7.5 5 7.3c0 0 2.6 0 3.1-1.8l.6.7zm-26.2-18.9c-8.6 1.9-8.5 8.3-8.5 13.2 0 0-.1 6.9 4.1 6.9 1.8 0 3.2-1.5 4.4-4V42.1z"/></svg>