<?xml version="1.0" encoding="utf-8"?>
<!-- Generator: Adobe Illustrator 19.2.1, SVG Export Plug-In . SVG Version: 6.00 Build 0)  -->
<svg version="1.1" id="Layer_1" xmlns="http://www.w3.org/2000/svg" xmlns:xlink="http://www.w3.org/1999/xlink" x="0px" y="0px"
	 viewBox="0 0 222.5 74.2" style="enable-background:new 0 0 222.5 74.2;" xml:space="preserve">
<style type="text/css">
	.st0{fill:url(#SVGID_1_);}
</style>
<linearGradient id="SVGID_1_" gradientUnits="userSpaceOnUse" x1="10.1944" y1="37.0787" x2="212.2775" y2="37.0787">
	<stop  offset="0" style="stop-color:#932270"/>
	<stop  offset="1" style="stop-color:#EE203E"/>
</linearGradient>
<path class="st0" d="M45.7,60.7c0,0-4.6,7-16.1,7s-18.6-4.4-18.6-4.4v-17h0.9c2.1,12.1,10.8,20.8,17.7,20.6
	c9.1-0.3,14.7-8.1,6.9-14.4c-9.3-7.4-10.6-7.2-16.3-11.1C8.9,33.7,7.7,20.6,14.1,11.8c0,0,3.9-6.2,15.8-6.2c12,0,17.1,3.6,17.1,3.6
	v13.2H46c-1.9-11.7-10-16-16.1-16c-11.3,0-18.6,8.2-5,15.9c0,0,9.4,4.6,16.6,11C50.2,41,51.4,52.2,45.7,60.7z M103.3,36.6
	c0,17-8.3,31.1-27,31.1s-27-14.1-27-31.1c0-17.1,8.3-31.1,27-31.1S103.3,19.5,103.3,36.6z M82,36.6c0-23.5-0.1-29.9-5.8-29.9
	c-5.8,0-5.9,6.5-5.9,29.9s0.1,29.9,5.9,29.9C81.9,66.6,82,60.1,82,36.6z M160.4,66.9v0.8h-26.2v-0.8c4-1.2,4.2-5.8,4.2-11.1V21.9
	c0-6-2.2-8.8-7.2-8.8c-2.3,0-4.7,1.9-6.2,4.1v38.7c0,5.8,0.5,9.9,4.3,11v0.8h-26.2v-0.8c4-1.2,4.1-5.5,4.1-11V17.5
	c0-3.7-1.2-5.1-5.4-6.7V9.9l23.2-4.4v10.2c2.7-5.5,8.3-10.2,13.9-10.2c8.4,0,17.2,3.4,17.2,15.9v34.3
	C156.2,61.6,156.8,66,160.4,66.9z M212.3,61c-1.5,4.6-6.9,7.6-13.5,7.6c0,0-11.6,0-12.6-9.4c-1.4,5.4-6.7,9.4-14.1,9.4
	c-4,0-13.1-1.8-13.1-10.7c0-10.5,8.5-12.5,27.1-16.9V21.6c0-10.9-6.2-16.8-13.4-13c0,0-2.3,1.4,1.3,2.6c1.8,0.6,2.9,2.1,3.8,4
	c1.6,3.9-0.2,8.1-4.1,9.7c-3.8,1.5-8.1-0.3-9.6-4.1c-1-2.7-0.5-5.9,1.3-7.8c1.3-1.4,3.1-3.2,7-5.3c4.7-2.5,9.8-2.2,9.8-2.2
	c13.7,0,21.4,8.6,21.4,20.9v28.4c0,0,0,7.5,5,7.3c0,0,2.6,0,3.1-1.8L212.3,61z M186.1,42.1c-8.6,1.9-8.5,8.3-8.5,13.2
	c0,0-0.1,6.9,4.1,6.9c1.8,0,3.2-1.5,4.4-4V42.1z"/>
</svg>
